# xmcd
#
# Track frame offsets:
#   150
#   15124
#   32294
#   47164
#   58871
#   72014
#   87979
#   104091
#   119326
#   134676
#   155971
#   178121
#   195119
#   210446
#   228666
#
# Disc length: 3268 seconds
#
# Revision: 0
# Processed by: cddbd v1.5.1PL2 Copyright (c) Steve Scherf et al.
# Submitted via: uFREEDB 1.6.2
#
DISCID=cc0cc20f
DTITLE=The Top Song 6 - The Top Song 6
DYEAR=1970
DGENRE=UnClassifiable
TTITLE0=I don't like to sleep alone
TTITLE1=Feeling
TTITLE2=Rhinstone cowboy
TTITLE3=Before the next tear drop falls
TTITLE4=Please Mister Postman
TTITLE5=Have you never been
TTITLE6=My eyes adored you 
TTITLE7=Love will keep us together
TTITLE8=Loving you
TTITLE9=At seventeen
TTITLE10=One of these nights
TTITLE11=Island girl
TTITLE12=SOS
TTITLE13=Send in the clowns
TTITLE14=The Last farewell
EXTD=
EXTT0=
EXTT1=
EXTT2=
EXTT3=
EXTT4=
EXTT5=
EXTT6=
EXTT7=
EXTT8=
EXTT9=
EXTT10=
EXTT11=
EXTT12=
EXTT13=
EXTT14=
PLAYORDER=
